<svg width="235" height="58" xmlns="http://www.w3.org/2000/svg" xmlns:xlink="http://www.w3.org/1999/xlink" overflow="hidden"><defs><clipPath id="clip0"><path d="M62 358 297 358 297 416 62 416Z" fill-rule="evenodd" clip-rule="evenodd"/></clipPath></defs><g clip-path="url(#clip0)" transform="translate(-62 -358)"><path d="M154.057 358C160.375 358 165.727 359.624 170.113 362.871 173.246 365.176 175.922 368.58 178.141 373.085L164.983 378.545C163.857 376.043 162.548 374.166 161.055 372.915 158.908 371.143 156.354 370.256 153.395 370.256 147.346 370.256 143.13 373.379 140.747 379.623 139.856 381.922 139.411 384.299 139.411 386.755 139.411 391.85 141.022 396.096 144.243 399.492 146.626 402.027 149.808 403.294 153.788 403.294 157.324 403.294 160.126 402.264 162.195 400.204 163.557 398.848 164.447 396.84 164.866 394.18L153.431 394.18 153.431 383.573 181 383.573C181 389.387 180.347 394.128 179.042 397.794 177.058 403.372 173.781 407.667 169.213 410.679 164.8 413.56 159.579 415 153.548 415 143.732 415 136.2 411.648 130.952 404.943 126.984 399.863 125 393.8 125 386.755 125 378.951 127.324 372.391 131.971 367.074 137.244 361.025 144.606 358 154.057 358Z" fill="#49A969" fill-rule="evenodd"/><path d="M266.48 358C275.852 358 283.284 361.121 288.776 367.363 293.592 372.847 296 379.233 296 386.52 296 393.78 293.592 400.153 288.776 405.637 283.284 411.879 275.852 415 266.48 415 257.135 415 249.716 411.879 244.224 405.637 239.408 400.153 237 393.78 237 386.52 237 383.203 237.651 379.801 238.952 376.314 240.254 372.828 241.998 369.844 244.185 367.363 249.677 361.121 257.109 358 266.48 358ZM266.48 371.476C263.297 371.476 260.413 372.373 257.829 374.167 255.245 375.961 253.405 378.35 252.309 381.335 251.682 383.037 251.369 384.765 251.369 386.52 251.369 390.133 252.57 393.367 254.971 396.221 257.946 399.756 261.783 401.524 266.48 401.524 271.178 401.524 275.028 399.769 278.029 396.261 280.43 393.459 281.631 390.212 281.631 386.52 281.631 382.749 280.43 379.489 278.029 376.739 274.949 373.231 271.1 371.476 266.48 371.476Z" fill="#49A969" fill-rule="evenodd"/><path d="M83.2489 360 98.1752 360 118 413 103.382 413 99.9881 403.759 81.089 403.759 77.4636 413 63 413 83.2489 360ZM90.6157 376.385 84.8689 393.275 96.2854 393.275 90.6157 376.385Z" fill="#49A969" fill-rule="evenodd"/><path d="M189 360 210.885 360C217.282 360 222.013 361.877 225.079 365.63 227.564 368.659 228.806 372.218 228.806 376.308 228.806 380.993 227.379 384.733 224.524 387.529 222.7 389.315 220.189 390.558 216.991 391.256L234 413 216.515 413 203.075 392.654 203.075 413 189 413 189 360ZM203.075 370.484 203.075 383.685 205.701 383.685C208.672 383.685 210.807 383.078 212.107 381.866 213.513 380.549 214.216 378.949 214.216 377.065 214.216 375.181 213.513 373.594 212.107 372.303 210.781 371.09 208.645 370.484 205.701 370.484L203.075 370.484Z" fill="#49A969" fill-rule="evenodd"/></g></svg>