<svg width="883" height="58" xmlns="http://www.w3.org/2000/svg" xmlns:xlink="http://www.w3.org/1999/xlink" overflow="hidden"><defs><clipPath id="clip0"><path d="M62 358 945 358 945 416 62 416Z" fill-rule="evenodd" clip-rule="evenodd"/></clipPath></defs><g clip-path="url(#clip0)" transform="translate(-62 -358)"><path d="M154.057 358C160.375 358 165.727 359.624 170.113 362.871 173.246 365.176 175.922 368.58 178.141 373.085L164.983 378.545C163.857 376.043 162.548 374.166 161.055 372.915 158.908 371.143 156.354 370.256 153.395 370.256 147.346 370.256 143.13 373.379 140.747 379.623 139.856 381.922 139.411 384.299 139.411 386.755 139.411 391.85 141.022 396.096 144.243 399.492 146.626 402.027 149.808 403.294 153.788 403.294 157.324 403.294 160.126 402.264 162.195 400.204 163.557 398.848 164.447 396.84 164.866 394.18L153.431 394.18 153.431 383.573 181 383.573C181 389.387 180.347 394.128 179.042 397.794 177.058 403.372 173.781 407.667 169.213 410.679 164.8 413.56 159.579 415 153.548 415 143.732 415 136.2 411.648 130.952 404.943 126.984 399.863 125 393.8 125 386.755 125 378.951 127.324 372.391 131.971 367.074 137.244 361.025 144.606 358 154.057 358Z" fill="#49A969" fill-rule="evenodd"/><path d="M266.48 358C275.852 358 283.284 361.121 288.776 367.363 293.592 372.847 296 379.233 296 386.52 296 393.78 293.592 400.153 288.776 405.637 283.284 411.879 275.852 415 266.48 415 257.135 415 249.716 411.879 244.224 405.637 239.408 400.153 237 393.78 237 386.52 237 383.203 237.651 379.801 238.952 376.314 240.254 372.828 241.998 369.844 244.185 367.363 249.677 361.121 257.109 358 266.48 358ZM266.48 371.476C263.297 371.476 260.413 372.373 257.829 374.167 255.245 375.961 253.405 378.35 252.309 381.335 251.682 383.037 251.369 384.765 251.369 386.52 251.369 390.133 252.57 393.367 254.971 396.221 257.946 399.756 261.783 401.524 266.48 401.524 271.178 401.524 275.028 399.769 278.029 396.261 280.43 393.459 281.631 390.212 281.631 386.52 281.631 382.749 280.43 379.489 278.029 376.739 274.949 373.231 271.1 371.476 266.48 371.476Z" fill="#49A969" fill-rule="evenodd"/><path d="M83.2489 360 98.1752 360 118 413 103.382 413 99.9881 403.759 81.089 403.759 77.4636 413 63 413 83.2489 360ZM90.6157 376.385 84.8689 393.275 96.2854 393.275 90.6157 376.385Z" fill="#49A969" fill-rule="evenodd"/><path d="M189 360 210.885 360C217.282 360 222.013 361.877 225.079 365.63 227.564 368.659 228.806 372.218 228.806 376.308 228.806 380.993 227.379 384.733 224.524 387.529 222.7 389.315 220.189 390.558 216.991 391.256L234 413 216.515 413 203.075 392.654 203.075 413 189 413 189 360ZM203.075 370.484 203.075 383.685 205.701 383.685C208.672 383.685 210.807 383.078 212.107 381.866 213.513 380.549 214.216 378.949 214.216 377.065 214.216 375.181 213.513 373.594 212.107 372.303 210.781 371.09 208.645 370.484 205.701 370.484L203.075 370.484Z" fill="#49A969" fill-rule="evenodd"/><path d="M327 360 341 360 341 413 327 413 327 360Z" fill="#6FB74A" fill-rule="evenodd"/><path d="M754.48 358C763.852 358 771.284 361.121 776.776 367.363 781.592 372.847 784 379.233 784 386.52 784 393.78 781.592 400.153 776.776 405.637 771.284 411.879 763.852 415 754.48 415 745.135 415 737.716 411.879 732.224 405.637 727.408 400.153 725 393.78 725 386.52 725 383.203 725.651 379.801 726.952 376.314 728.254 372.828 729.998 369.844 732.185 367.363 737.677 361.121 745.109 358 754.48 358ZM754.48 371.476C751.297 371.476 748.413 372.373 745.829 374.167 743.245 375.961 741.405 378.35 740.309 381.335 739.682 383.037 739.369 384.765 739.369 386.52 739.369 390.133 740.57 393.367 742.971 396.221 745.946 399.756 749.783 401.524 754.48 401.524 759.178 401.524 763.028 399.769 766.029 396.261 768.43 393.459 769.631 390.212 769.631 386.52 769.631 382.749 768.43 379.489 766.029 376.739 762.949 373.231 759.1 371.476 754.48 371.476Z" fill="#7ABD43" fill-rule="evenodd"/><path d="M352 360 365.804 360 391.196 392.421 391.196 360 405 360 405 413 391.196 413 365.804 380.54 365.804 413 352 413 352 360Z" fill="#6FB74A" fill-rule="evenodd"/><path d="M411 360 448 360 448 371.493 436.403 371.493 436.403 413 422.4 413 422.4 371.493 411 371.493 411 360Z" fill="#6FB74A" fill-rule="evenodd"/><path d="M454 360 485 360 485 371.493 468.163 371.493 468.163 380.54 484.082 380.54 484.082 392.033 468.163 392.033 468.163 401.507 485 401.507 485 413 454 413 454 360Z" fill="#6FB74A" fill-rule="evenodd"/><path d="M493 360 514.885 360C521.282 360 526.013 361.877 529.079 365.63 531.564 368.659 532.806 372.218 532.806 376.308 532.806 380.993 531.379 384.733 528.524 387.529 526.7 389.315 524.189 390.558 520.991 391.256L538 413 520.515 413 507.075 392.654 507.075 413 493 413 493 360ZM507.075 370.484 507.075 383.685 509.701 383.685C512.672 383.685 514.807 383.078 516.107 381.866 517.513 380.549 518.216 378.949 518.216 377.065 518.216 375.181 517.513 373.594 516.107 372.303 514.781 371.09 512.645 370.484 509.701 370.484L507.075 370.484Z" fill="#6FB74A" fill-rule="evenodd"/><path d="M543 360 556.804 360 582.196 392.421 582.196 360 596 360 596 413 582.196 413 556.804 380.54 556.804 413 543 413 543 360Z" fill="#7ABD43" fill-rule="evenodd"/><path d="M622.617 360 637.815 360 658 413 643.116 413 639.661 403.759 620.418 403.759 616.727 413 602 413 622.617 360ZM630.118 376.385 624.266 393.275 635.891 393.275 630.118 376.385Z" fill="#7ABD43" fill-rule="evenodd"/><path d="M659 360 696 360 696 371.493 684.403 371.493 684.403 413 670.4 413 670.4 371.493 659 371.493 659 360Z" fill="#7ABD43" fill-rule="evenodd"/><path d="M702 360 716 360 716 413 702 413 702 360Z" fill="#7ABD43" fill-rule="evenodd"/><path d="M792 360 805.804 360 831.196 392.421 831.196 360 845 360 845 413 831.196 413 805.804 380.54 805.804 413 792 413 792 360Z" fill="#7ABD43" fill-rule="evenodd"/><path d="M871.617 360 886.815 360 907 413 892.116 413 888.661 403.759 869.418 403.759 865.727 413 851 413 871.617 360ZM879.118 376.385 873.266 393.275 884.891 393.275 879.118 376.385Z" fill="#83C13A" fill-rule="evenodd"/><path d="M913 360 927.091 360 927.091 401.507 944 401.507 944 413 913 413 913 360Z" fill="#83C13A" fill-rule="evenodd"/></g></svg>